<svg width="48" height="48" viewBox="0 0 48 48" fill="none" xmlns="http://www.w3.org/2000/svg">
<g clip-path="url(#clip0_2_594)">
<path d="M24 48C37.2548 48 48 37.2548 48 24C48 10.7452 37.2548 0 24 0C10.7452 0 0 10.7452 0 24C0.0143437 37.2489 10.7511 47.9857 24 48ZM22 12C22 10.8954 22.8954 10 24 10C25.1046 10 26 10.8954 26 12V28C26 29.1046 25.1046 30 24 30C22.8954 30 22 29.1046 22 28V12ZM24 36C25.1046 36 26 36.8954 26 38C26 39.1045 25.1046 39.9999 24 39.9999C22.8954 39.9999 22 39.1045 22 38C22 36.8954 22.8954 36 24 36Z" fill="#FF5252"/>
</g>
<defs>
<clipPath id="clip0_2_594">
<rect width="48" height="48" fill="white"/>
</clipPath>
</defs>
</svg>
