<svg width="48" height="48" viewBox="0 0 48 48" fill="none" xmlns="http://www.w3.org/2000/svg">
<g clip-path="url(#clip0_2_546)">
<path d="M24 0C10.766 0 0 10.766 0 24C0 37.234 10.766 48 24 48C37.234 48 48 37.234 48 24C48 10.766 37.234 0 24 0ZM36.4 21.024L27.548 29.714C25.982 31.25 23.966 32.016 21.948 32.016C19.952 32.016 17.956 31.264 16.396 29.758L12.598 26.024C11.81 25.25 11.8 23.984 12.574 23.196C13.346 22.406 14.616 22.396 15.402 23.172L19.188 26.894C20.74 28.394 23.19 28.386 24.75 26.858L33.6 18.17C34.386 17.394 35.648 17.408 36.428 18.196C37.202 18.984 37.19 20.25 36.4 21.024Z" fill="#30AF5B"/>
</g>
<defs>
<clipPath id="clip0_2_546">
<rect width="48" height="48" fill="white"/>
</clipPath>
</defs>
</svg>
