<svg width="48" height="48" viewBox="0 0 48 48" fill="none" xmlns="http://www.w3.org/2000/svg">
<path d="M46.1607 30.66L30.0007 5.14C28.6407 3.18 26.3807 2 24.0007 2C21.6207 2 19.3607 3.16 17.9407 5.2L1.86068 30.62C-0.179319 33.54 -0.559319 37.04 0.860681 39.74C2.26068 42.44 5.20068 43.98 8.88068 43.98H39.1207C42.8207 43.98 45.7407 42.44 47.1407 39.74C48.5407 37.04 48.1607 33.56 46.1607 30.66ZM22.0007 14C22.0007 12.9 22.9007 12 24.0007 12C25.1007 12 26.0007 12.9 26.0007 14V26C26.0007 27.1 25.1007 28 24.0007 28C22.9007 28 22.0007 27.1 22.0007 26V14ZM24.0007 38C22.3407 38 21.0007 36.66 21.0007 35C21.0007 33.34 22.3407 32 24.0007 32C25.6607 32 27.0007 33.34 27.0007 35C27.0007 36.66 25.6607 38 24.0007 38Z" fill="#FFB155"/>
</svg>
