<svg width="48" height="48" viewBox="0 0 48 48" fill="none" xmlns="http://www.w3.org/2000/svg">
<g clip-path="url(#clip0_2_562)">
<path d="M24 48C28.7468 48 33.3869 46.5924 37.3337 43.9553C41.2805 41.3181 44.3566 37.5698 46.1731 33.1844C47.9896 28.799 48.4649 23.9734 47.5388 19.3178C46.6128 14.6623 44.327 10.3859 40.9706 7.02945C37.6141 3.67299 33.3377 1.38721 28.6822 0.461164C24.0266 -0.464881 19.201 0.0103989 14.8156 1.8269C10.4302 3.64341 6.68188 6.71954 4.04473 10.6663C1.40758 14.6131 0 19.2533 0 24C0.00688216 30.3631 2.53766 36.4636 7.03704 40.963C11.5364 45.4624 17.6369 47.9931 24 48ZM24 10C24.5933 10 25.1734 10.176 25.6667 10.5056C26.1601 10.8352 26.5446 11.3038 26.7716 11.852C26.9987 12.4001 27.0581 13.0033 26.9424 13.5853C26.8266 14.1672 26.5409 14.7018 26.1213 15.1213C25.7018 15.5409 25.1672 15.8266 24.5853 15.9424C24.0033 16.0581 23.4001 15.9987 22.852 15.7716C22.3038 15.5446 21.8352 15.1601 21.5056 14.6667C21.1759 14.1734 21 13.5934 21 13C21 12.2044 21.3161 11.4413 21.8787 10.8787C22.4413 10.3161 23.2044 10 24 10ZM22 20H24C25.0609 20 26.0783 20.4214 26.8284 21.1716C27.5786 21.9217 28 22.9391 28 24V36C28 36.5304 27.7893 37.0392 27.4142 37.4142C27.0391 37.7893 26.5304 38 26 38C25.4696 38 24.9609 37.7893 24.5858 37.4142C24.2107 37.0392 24 36.5304 24 36V24H22C21.4696 24 20.9609 23.7893 20.5858 23.4142C20.2107 23.0392 20 22.5304 20 22C20 21.4696 20.2107 20.9609 20.5858 20.5858C20.9609 20.2107 21.4696 20 22 20Z" fill="#01509A"/>
</g>
<defs>
<clipPath id="clip0_2_562">
<rect width="48" height="48" fill="white"/>
</clipPath>
</defs>
</svg>
